<?xml version="1.0" encoding="UTF-8" standalone="no"?>
<!-- Created with Inkscape (http://www.inkscape.org/) -->

<svg
   xmlns:dc="http://purl.org/dc/elements/1.1/"
   xmlns:cc="http://creativecommons.org/ns#"
   xmlns:rdf="http://www.w3.org/1999/02/22-rdf-syntax-ns#"
   xmlns:svg="http://www.w3.org/2000/svg"
   xmlns="http://www.w3.org/2000/svg"
   xmlns:xlink="http://www.w3.org/1999/xlink"
   xmlns:sodipodi="http://sodipodi.sourceforge.net/DTD/sodipodi-0.dtd"
   xmlns:inkscape="http://www.inkscape.org/namespaces/inkscape"
   width="63.935692"
   height="63.844788"
   id="svg3136"
   version="1.1"
   inkscape:version="0.48.3.1 r9886"
   sodipodi:docname="New document 2">
  <defs
     id="defs3138">
    <linearGradient
       inkscape:collect="always"
       xlink:href="#linearGradient7567"
       id="linearGradient4122"
       gradientUnits="userSpaceOnUse"
       gradientTransform="matrix(1.01883,0,0,1.01591,-0.648953,-0.463736)"
       x1="61.9585"
       y1="3"
       x2="6.2233124"
       y2="58.090912" />
    <linearGradient
       id="linearGradient7567">
      <stop
         style="stop-color:#9bdfee;stop-opacity:1;"
         offset="0"
         id="stop7569" />
      <stop
         style="stop-color:#66b7c9;stop-opacity:1;"
         offset="1"
         id="stop7571" />
    </linearGradient>
  </defs>
  <sodipodi:namedview
     id="base"
     pagecolor="#ffffff"
     bordercolor="#666666"
     borderopacity="1.0"
     inkscape:pageopacity="0.0"
     inkscape:pageshadow="2"
     inkscape:zoom="0.35"
     inkscape:cx="66.967848"
     inkscape:cy="260.49383"
     inkscape:document-units="px"
     inkscape:current-layer="layer1"
     showgrid="false"
     fit-margin-top="0"
     fit-margin-left="0"
     fit-margin-right="0"
     fit-margin-bottom="0"
     inkscape:window-width="465"
     inkscape:window-height="447"
     inkscape:window-x="0"
     inkscape:window-y="27"
     inkscape:window-maximized="0" />
  <metadata
     id="metadata3141">
    <rdf:RDF>
      <cc:Work
         rdf:about="">
        <dc:format>image/svg+xml</dc:format>
        <dc:type
           rdf:resource="http://purl.org/dc/dcmitype/StillImage" />
        <dc:title></dc:title>
      </cc:Work>
    </rdf:RDF>
  </metadata>
  <g
     inkscape:label="Layer 1"
     inkscape:groupmode="layer"
     id="layer1"
     transform="translate(-308.03215,-729.01122)">
    <g
       transform="translate(308,728.88816)"
       style="display:inline"
       id="g3852">
      <rect
         style="fill:url(#linearGradient4122);fill-opacity:1;stroke:none"
         id="rect3854"
         width="63.935692"
         height="63.844788"
         x="0.032151747"
         y="0.12306051"
         ry="2.9927244" />
      <path
         transform="matrix(1.14286,0,0,1.14286,-6.74277,-2.74101)"
         sodipodi:type="arc"
         style="fill:#ffffff;fill-opacity:1;stroke:none;display:inline"
         id="path3912"
         sodipodi:cx="41.321552"
         sodipodi:cy="23.20878"
         sodipodi:rx="7.7339802"
         sodipodi:ry="7.7339802"
         d="m 33.587862,23.141846 c 0.03697,-4.271199 3.529425,-7.703723 7.800624,-7.666756 4.2712,0.03697 7.703723,3.529425 7.666757,7.800624 -0.03697,4.2712 -3.529425,7.703723 -7.800625,7.666757 -4.258571,-0.03686 -7.686012,-3.509585 -7.666969,-7.768273"
         sodipodi:start="3.1502473"
         sodipodi:end="9.4292495"
         sodipodi:open="true" />
      <path
         transform="matrix(1.14286,0,0,1.14286,-22.9178,14.4063)"
         sodipodi:type="arc"
         style="fill:#ffffff;fill-opacity:1;stroke:none;display:inline"
         id="path3912-9"
         sodipodi:cx="41.321552"
         sodipodi:cy="23.20878"
         sodipodi:rx="7.7339802"
         sodipodi:ry="7.7339802"
         d="m 33.587862,23.141846 c 0.03697,-4.271199 3.529425,-7.703723 7.800624,-7.666756 4.2712,0.03697 7.703723,3.529425 7.666757,7.800624 -0.03697,4.2712 -3.529425,7.703723 -7.800625,7.666757 -4.258571,-0.03686 -7.686012,-3.509585 -7.666969,-7.768273"
         sodipodi:start="3.1502473"
         sodipodi:end="9.4292495"
         sodipodi:open="true" />
      <path
         style="font-size:medium;font-style:normal;font-variant:normal;font-weight:normal;font-stretch:normal;text-indent:0;text-align:start;text-decoration:none;line-height:normal;letter-spacing:normal;word-spacing:normal;text-transform:none;direction:ltr;block-progression:tb;writing-mode:lr-tb;text-anchor:start;baseline-shift:baseline;color:#000000;fill:#000000;fill-opacity:1;stroke:#ffffff;stroke-width:1.5;stroke-miterlimit:4;stroke-opacity:1;stroke-dasharray:none;marker:none;visibility:visible;display:inline;overflow:visible;enable-background:accumulate;font-family:Sans;-inkscape-font-specification:Sans"
         d="m 41.5625,11.75 c -2.751489,-0.03683 -5.529594,0.898724 -7.78125,2.71875 -2.251656,1.820026 -3.9375,4.651732 -3.9375,8.0625 l 0,6.875 -4.375,0 c -4.512243,0 -7.937731,1.390943 -10.09375,3.65625 -2.156019,2.265307 -2.9375,5.188477 -2.9375,7.78125 0,5.593668 4.326553,11.323269 10.75,11.6875 2.942605,0.166856 5.837952,-0.541401 8.0625,-2.34375 2.224548,-1.802349 3.59375,-4.702161 3.59375,-8.09375 l 0,-7.6875 7.59375,0 c 3.044403,0 5.904124,-0.771613 8,-2.71875 2.095876,-1.947137 3.15625,-4.899411 3.15625,-8.34375 0,-3.70713 -1.755395,-6.760256 -4.09375,-8.6875 C 47.161645,12.729006 44.289539,11.786504 41.5625,11.75 z m -0.0625,5 c 1.536241,0.02056 3.443705,0.653105 4.8125,1.78125 1.368795,1.128145 2.28125,2.590254 2.28125,4.8125 0,2.485038 -0.639653,3.830145 -1.5625,4.6875 -0.922847,0.857355 -2.38893,1.375 -4.59375,1.375 l -7.59375,0 0,-6.875 c 0,-1.848827 0.783782,-3.153906 2.0625,-4.1875 C 38.184968,17.310156 39.988209,16.729763 41.5,16.75 z m -16.03125,17.65625 4.375,0 0,7.6875 c 0,2.153078 -0.690576,3.360395 -1.75,4.21875 -1.059424,0.858355 -2.672272,1.329476 -4.625,1.21875 -3.367219,-0.190933 -6.03125,-3.868742 -6.03125,-6.6875 0,-1.61344 0.471073,-3.165749 1.5625,-4.3125 1.091427,-1.146751 2.93435,-2.125 6.46875,-2.125 z"
         id="path3910"
         inkscape:connector-curvature="0" />
      <rect
         style="fill:#ffffff;fill-opacity:1;stroke:none"
         id="rect4008"
         width="6.5624995"
         height="1.2499999"
         x="29.343748"
         y="28.906252"
         ry="0" />
      <rect
         style="fill:#ffffff;fill-opacity:1;stroke:none;display:inline"
         id="rect4008-8"
         width="6.5624995"
         height="1.2343749"
         x="29.062498"
         y="33.65625"
         ry="0"
         rx="0" />
    </g>
  </g>
</svg>
