<?xml version="1.0" encoding="UTF-8" standalone="no"?>
<!-- Created with Inkscape (http://www.inkscape.org/) -->

<svg
   xmlns:dc="http://purl.org/dc/elements/1.1/"
   xmlns:cc="http://creativecommons.org/ns#"
   xmlns:rdf="http://www.w3.org/1999/02/22-rdf-syntax-ns#"
   xmlns:svg="http://www.w3.org/2000/svg"
   xmlns="http://www.w3.org/2000/svg"
   xmlns:xlink="http://www.w3.org/1999/xlink"
   xmlns:sodipodi="http://sodipodi.sourceforge.net/DTD/sodipodi-0.dtd"
   xmlns:inkscape="http://www.inkscape.org/namespaces/inkscape"
   width="64px"
   height="64px"
   id="svg3344"
   version="1.1"
   inkscape:version="0.48.3.1 r9886"
   sodipodi:docname="New document 7">
  <defs
     id="defs3346">
    <linearGradient
       y2="62.627819"
       x2="2.4495552"
       y1="9.4180365"
       x1="46.701199"
       gradientTransform="translate(-15.210989,-23.3536)"
       gradientUnits="userSpaceOnUse"
       id="linearGradient3294"
       xlink:href="#linearGradient7586"
       inkscape:collect="always" />
    <linearGradient
       id="linearGradient7586">
      <stop
         id="stop7588"
         offset="0"
         style="stop-color:#9bdfee;stop-opacity:1;" />
      <stop
         id="stop7590"
         offset="1"
         style="stop-color:#4c9bad;stop-opacity:1;" />
    </linearGradient>
    <linearGradient
       y2="62.627819"
       x2="2.4495552"
       y1="9.4180365"
       x1="46.701199"
       gradientTransform="translate(0.18182005,-0.954545)"
       gradientUnits="userSpaceOnUse"
       id="linearGradient3342"
       xlink:href="#linearGradient7586"
       inkscape:collect="always" />
    <linearGradient
       inkscape:collect="always"
       xlink:href="#linearGradient7586"
       id="linearGradient3378"
       gradientUnits="userSpaceOnUse"
       gradientTransform="matrix(1.0010058,0,0,1.0024311,0.18178771,-0.95484417)"
       x1="46.701199"
       y1="9.4180365"
       x2="2.4495552"
       y2="62.627819" />
  </defs>
  <sodipodi:namedview
     id="base"
     pagecolor="#ffffff"
     bordercolor="#666666"
     borderopacity="1.0"
     inkscape:pageopacity="0.0"
     inkscape:pageshadow="2"
     inkscape:zoom="11"
     inkscape:cx="33.095723"
     inkscape:cy="26.345015"
     inkscape:current-layer="g3373"
     showgrid="true"
     inkscape:document-units="px"
     inkscape:grid-bbox="true"
     showguides="true"
     inkscape:guide-bbox="true"
     inkscape:snap-global="true"
     inkscape:window-width="1920"
     inkscape:window-height="1056"
     inkscape:window-x="0"
     inkscape:window-y="0"
     inkscape:window-maximized="1">
    <inkscape:grid
       type="xygrid"
       id="grid3380" />
  </sodipodi:namedview>
  <metadata
     id="metadata3349">
    <rdf:RDF>
      <cc:Work
         rdf:about="">
        <dc:format>image/svg+xml</dc:format>
        <dc:type
           rdf:resource="http://purl.org/dc/dcmitype/StillImage" />
        <dc:title></dc:title>
      </cc:Work>
    </rdf:RDF>
  </metadata>
  <g
     id="layer1"
     inkscape:label="Layer 1"
     inkscape:groupmode="layer">
    <g
       id="g3373"
       transform="translate(-0.21397214,0.83148575)">
      <rect
         style="fill:url(#linearGradient3378);fill-opacity:1;stroke:none;display:inline"
         id="rect4219"
         width="64"
         height="64"
         x="0.21397214"
         y="-0.83148575"
         ry="3" />
      <path
         inkscape:connector-curvature="0"
         id="path3172"
         d="m 25.682137,23.972974 c 0.04033,-4.625211 3.850479,-8.342235 8.510207,-8.302204 4.659728,0.04003 8.40449,3.821956 8.364161,8.447168 -0.04033,4.625211 -3.850479,8.342235 -8.510207,8.302204 -4.645951,-0.03991 -8.385168,-3.800472 -8.364393,-8.412135"
         style="fill:#ffffff;fill-opacity:1;stroke:none;display:inline" />
      <path
         id="path3207"
         style="font-size:75.62056732px;font-style:normal;font-variant:normal;font-weight:normal;font-stretch:normal;line-height:125%;letter-spacing:0px;word-spacing:0px;fill:#000000;fill-opacity:1;stroke:none;display:inline;font-family:MrsEavesSmallCaps;-inkscape-font-specification:MrsEavesSmallCaps"
         d="m 40.416271,24.271522 c -2.5e-5,-1.9325 -0.525168,-3.507927 -1.575429,-4.726285 -1.050308,-1.260314 -2.604729,-1.890485 -4.663268,-1.890515 l -4.285165,0 0,13.170583 4.285165,0 c 2.058539,1.6e-5 3.61296,-0.609149 4.663268,-1.827497 1.050261,-1.218312 1.575404,-2.793739 1.575429,-4.726286 M 29.892409,37.31607 c -1.5e-5,3.781035 0.357082,6.196689 1.071291,7.246971 0.714178,1.050288 2.352622,1.57543 4.915337,1.575428 l 0,1.512412 -17.329714,0 0,-1.512412 c 2.52068,2e-6 4.138118,-0.52514 4.85232,-1.575428 0.756197,-1.092293 1.134299,-3.507948 1.134309,-7.246971 l 0,-12.099291 c -1e-5,-3.781002 -0.357106,-6.196657 -1.071292,-7.246971 -0.714202,-1.050255 -2.352646,-1.575397 -4.915337,-1.575428 l 0,-1.512412 15.691268,0 c 3.823017,3.3e-5 6.78482,0.861266 8.885417,2.583703 2.100541,1.722497 3.150826,3.991112 3.150857,6.805851 -3.1e-5,2.730763 -1.071322,4.978372 -3.213874,6.742834 -2.100597,1.722483 -5.041394,2.583717 -8.8224,2.583703 l -4.348182,0 0,3.718011"
         inkscape:connector-curvature="0" />
    </g>
  </g>
</svg>
