<?xml version="1.0" encoding="UTF-8" standalone="no"?>
<!-- Created with Inkscape (http://www.inkscape.org/) -->

<svg
   xmlns:dc="http://purl.org/dc/elements/1.1/"
   xmlns:cc="http://creativecommons.org/ns#"
   xmlns:rdf="http://www.w3.org/1999/02/22-rdf-syntax-ns#"
   xmlns:svg="http://www.w3.org/2000/svg"
   xmlns="http://www.w3.org/2000/svg"
   xmlns:xlink="http://www.w3.org/1999/xlink"
   xmlns:sodipodi="http://sodipodi.sourceforge.net/DTD/sodipodi-0.dtd"
   xmlns:inkscape="http://www.inkscape.org/namespaces/inkscape"
   width="63.935692"
   height="63.844788"
   id="svg3377"
   version="1.1"
   inkscape:version="0.48.3.1 r9886"
   sodipodi:docname="New document 7">
  <defs
     id="defs3379">
    <linearGradient
       inkscape:collect="always"
       xlink:href="#linearGradient7567"
       id="linearGradient3872"
       gradientUnits="userSpaceOnUse"
       gradientTransform="matrix(1.01883,0,0,1.01591,-0.648953,-0.463736)"
       x1="61.9585"
       y1="3"
       x2="6.2233124"
       y2="58.090912" />
    <linearGradient
       id="linearGradient7567">
      <stop
         style="stop-color:#9bdfee;stop-opacity:1;"
         offset="0"
         id="stop7569" />
      <stop
         style="stop-color:#66b7c9;stop-opacity:1;"
         offset="1"
         id="stop7571" />
    </linearGradient>
    <linearGradient
       y2="58.090912"
       x2="6.2233124"
       y1="3"
       x1="61.9585"
       gradientTransform="matrix(1.01883,0,0,1.01591,-0.648953,-0.463736)"
       gradientUnits="userSpaceOnUse"
       id="linearGradient3190"
       xlink:href="#linearGradient7567"
       inkscape:collect="always" />
  </defs>
  <sodipodi:namedview
     id="base"
     pagecolor="#ffffff"
     bordercolor="#666666"
     borderopacity="1.0"
     inkscape:pageopacity="0.0"
     inkscape:pageshadow="2"
     inkscape:zoom="0.35"
     inkscape:cx="31.967848"
     inkscape:cy="31.922395"
     inkscape:document-units="px"
     inkscape:current-layer="layer1"
     showgrid="false"
     fit-margin-top="0"
     fit-margin-left="0"
     fit-margin-right="0"
     fit-margin-bottom="0"
     inkscape:window-width="465"
     inkscape:window-height="447"
     inkscape:window-x="0"
     inkscape:window-y="27"
     inkscape:window-maximized="0" />
  <metadata
     id="metadata3382">
    <rdf:RDF>
      <cc:Work
         rdf:about="">
        <dc:format>image/svg+xml</dc:format>
        <dc:type
           rdf:resource="http://purl.org/dc/dcmitype/StillImage" />
        <dc:title></dc:title>
      </cc:Work>
    </rdf:RDF>
  </metadata>
  <g
     inkscape:label="Layer 1"
     inkscape:groupmode="layer"
     id="layer1"
     transform="translate(-343.03215,-500.43979)">
    <g
       transform="translate(343,500.31673)"
       style="display:inline"
       id="g4060">
      <rect
         ry="2.9927244"
         y="0.12306051"
         x="0.032151747"
         height="63.844788"
         width="63.935692"
         id="rect4062"
         style="fill:url(#linearGradient3190);fill-opacity:1;stroke:none" />
    </g>
    <path
       style="fill:#ffffff;fill-opacity:1;stroke:none;display:inline"
       d="m 379.18745,519.52436 3.14,1.33655 4.07123,6.86304 -3.09359,14.31892 c 0,0 -17.14734,2.29809 -17.05895,1.94454 0.0884,-0.35355 -1.94455,-14.14214 -1.94455,-14.14214 l 11.13693,-7.24784 z"
       id="path3929"
       inkscape:connector-curvature="0"
       sodipodi:nodetypes="ccccsccc" />
    <path
       style="fill:#000000;fill-opacity:1;stroke:none;display:inline"
       d="m 374.875,518.69173 c -8.5424,-0.0722 -15.51981,6.65292 -15.59375,15 l 0,0.0625 c -0.0381,8.32262 6.79536,15.11547 15.3125,15.1875 8.5424,0.0722 15.55107,-6.62168 15.625,-14.96875 0.007,-0.73287 -0.15293,-1.07513 -0.25,-1.78125 4.88978,-1.34158 7.84463,-8.2711 3.78125,-7.15625 -4.61674,0 -7.71326,-2.34218 -11.40625,-4.1875 l 0,12.46875 c 0.002,0.0204 -10e-4,0.0421 0,0.0625 0.17314,2.88773 -2.14063,5.91145 -5.6875,7.125 -4.04157,1.38281 -8.1656,-0.11172 -9.21875,-3.3125 -1.03932,-3.21611 1.41519,-6.95684 5.46875,-8.34375 2.30828,-0.78977 4.63361,-0.64276 6.40625,0.21875 l 0,-9.5 c -1.33672,-0.44731 -2.78779,-0.78033 -4.4375,-0.875 z"
       id="path3915"
       inkscape:connector-curvature="0"
       sodipodi:nodetypes="cccsccccccscsccc" />
  </g>
</svg>
